<?xml version="1.0" encoding="utf-8"?>
<!-- Generator: Adobe Illustrator 25.0.1, SVG Export Plug-In . SVG Version: 6.00 Build 0)  -->
<svg version="1.1" id="Layer_1" xmlns="http://www.w3.org/2000/svg" xmlns:xlink="http://www.w3.org/1999/xlink" x="0px" y="0px"
	 viewBox="0 0 32 32" style="enable-background:new 0 0 32 32;" xml:space="preserve">
<style type="text/css">
	.st0{clip-path:url(#SVGID_2_);fill:#FFFFFF;}
	.st1{clip-path:url(#SVGID_4_);fill:none;stroke:#000000;stroke-width:0.75;stroke-linecap:round;stroke-linejoin:round;}
	.st2{clip-path:url(#SVGID_6_);fill:none;stroke:#000000;stroke-width:0.75;stroke-linecap:round;}
	.st3{clip-path:url(#SVGID_8_);fill:none;stroke:#000000;stroke-width:0.75;stroke-linecap:round;}
	.st4{clip-path:url(#SVGID_10_);fill:none;stroke:#000000;stroke-width:0.75;stroke-linecap:round;}
</style>
<g id="Layer_1_1_">
	<g>
		<g>
			<g>
				<defs>
					<rect id="SVGID_1_" width="32" height="32"/>
				</defs>
				<clipPath id="SVGID_2_">
					<use xlink:href="#SVGID_1_"  style="overflow:visible;"/>
				</clipPath>
				<path class="st0" d="M19.7,16.6c0.3,0,0.6,0,0.8-0.2c0.2-0.2,0.3-0.6,0.4-0.9c0.1-0.4,0.3-0.7,0.5-1c0.2-0.2,0.5-0.4,0.9-0.4
					c0.3,0.1,0.7,0.2,0.9,0.4c0.3,0.3,0.4,0.8,0.4,1.2c-0.1,0.7-0.3,1.5-0.7,2.1c-0.5,0.8-1.3,1.4-2,2.1c-0.3,0.3-0.6,0.6-0.9,0.9
					c-0.5,0.5-0.9,0.9-1.4,1.4c-0.2,0.3-0.2,0.8-0.2,1.1c0,0.1,0,0.2,0,0.3c-0.1,0.1-0.2,0.1-0.3,0.1c-0.3,0-0.7,0-1,0
					c-0.6,0-1.2,0.1-1.8,0c-0.4,0-0.9-0.7-1.1-1.1c-0.2-0.3-0.5-0.3-0.7,0c-0.1,0.3-0.6,1-1,1.1c-0.4,0.1-1.2,0-1.2,0
					s0.1-0.5,0.1-0.9s0-0.4-0.1-1c-0.1-0.6-1.2-1.8-1.2-1.8c-0.3-0.4-0.6-1.1-0.7-1.4c-0.2-0.4-0.3-1.4-0.4-1.8
					c0-0.4-0.2-1.2-0.3-1.6c-0.1-0.3-0.3-1-0.4-1.6c0-0.4-0.1-0.9,0-1.1c0.2-0.5,0.8-0.8,1.3-0.6c0.3,0.2,0.5,0.3,0.7,0.6
					c0.2,0.3,0.3,0.5,0.4,0.7c0.2,0.3,0.4,0.8,0.4,0.9c0.1,0.2,0.2,0.4,0.3,0.7c0,0.1,0-0.2,0-0.2c0-0.8,0-1.2,0-2.1
					c0-0.3,0-0.8,0-1.2c0.1-0.5,0.2-0.9,0.5-1.2s1-0.4,1.4-0.2s0.7,0.5,0.8,0.9c0.2,0.7,0.2,3.2,0.3,3.9c0,0.1,0-1.3,0-1.5
					c0-0.6,0-1.2,0-2.2c0-0.1,0.1-1,0.1-1.1c0.1-0.5,0.3-0.8,0.7-1c0.5-0.2,1-0.2,1.4,0s0.6,0.5,0.7,1c0,0.1,0.1,0.6,0.1,0.7
					c0.1,1.1,0,1.9,0,2.9c0,0.1,0,1.2,0,1.2l0.1-0.5c0.1-0.3,0.1-0.6,0.2-0.9s0.2-0.5,0.3-0.7c0.3-0.5,0.6-0.9,1-1.2s1-0.7,1.5-0.7
					s1,0.1,1.3,0.4c0.1,0.1,0.3,0.4,0.3,0.6c0,0.6-0.3,1-0.8,1.3c-0.2,0.2-0.4,0.3-0.6,0.5c-0.5,0.3-0.8,0.9-0.9,1.5
					c-0.2,0.8-0.3,1.2-0.4,1.6"/>
			</g>
		</g>
		<g>
			<g>
				<defs>
					<rect id="SVGID_3_" width="32" height="32"/>
				</defs>
				<clipPath id="SVGID_4_">
					<use xlink:href="#SVGID_3_"  style="overflow:visible;"/>
				</clipPath>
				<path class="st1" d="M19.7,16.6c0.3,0,0.6,0,0.8-0.2c0.2-0.2,0.3-0.6,0.4-0.9c0.1-0.4,0.3-0.7,0.5-1c0.2-0.2,0.5-0.4,0.9-0.4
					c0.3,0.1,0.7,0.2,0.9,0.4c0.3,0.3,0.4,0.8,0.4,1.2c-0.1,0.7-0.3,1.5-0.7,2.1c-0.5,0.8-1.3,1.4-2,2.1c-0.3,0.3-0.6,0.6-0.9,0.9
					c-0.5,0.5-0.9,0.9-1.4,1.4c-0.2,0.3-0.2,0.8-0.2,1.1c0,0.1,0,0.2,0,0.3c-0.1,0.1-0.2,0.1-0.3,0.1c-0.3,0-0.7,0-1,0
					c-0.6,0-1.2,0.1-1.8,0c-0.4,0-0.9-0.7-1.1-1.1c-0.2-0.3-0.5-0.3-0.7,0c-0.1,0.3-0.6,1-1,1.1c-0.4,0.1-1.2,0-1.2,0
					s0.1-0.5,0.1-0.9s0-0.4-0.1-1c-0.1-0.6-1.2-1.8-1.2-1.8c-0.3-0.4-0.6-1.1-0.7-1.4c-0.2-0.4-0.3-1.4-0.4-1.8
					c0-0.4-0.2-1.2-0.3-1.6c-0.1-0.3-0.3-1-0.4-1.6c0-0.4-0.1-0.9,0-1.1c0.2-0.5,0.8-0.8,1.3-0.6c0.3,0.2,0.5,0.3,0.7,0.6
					c0.2,0.3,0.3,0.5,0.4,0.7c0.2,0.3,0.4,0.8,0.4,0.9c0.1,0.2,0.2,0.4,0.3,0.7c0,0.1,0-0.2,0-0.2c0-0.8,0-1.2,0-2.1
					c0-0.3,0-0.8,0-1.2c0.1-0.5,0.2-0.9,0.5-1.2s1-0.4,1.4-0.2s0.7,0.5,0.8,0.9c0.2,0.7,0.2,3.2,0.3,3.9c0,0.1,0-1.3,0-1.5
					c0-0.6,0-1.2,0-2.2c0-0.1,0.1-1,0.1-1.1c0.1-0.5,0.3-0.8,0.7-1c0.5-0.2,1-0.2,1.4,0s0.6,0.5,0.7,1c0,0.1,0.1,0.6,0.1,0.7
					c0.1,1.1,0,1.9,0,2.9c0,0.1,0,1.2,0,1.2l0.1-0.5c0.1-0.3,0.1-0.6,0.2-0.9s0.2-0.5,0.3-0.7c0.3-0.5,0.6-0.9,1-1.2s1-0.7,1.5-0.7
					s1,0.1,1.3,0.4c0.1,0.1,0.3,0.4,0.3,0.6c0,0.6-0.3,1-0.8,1.3c-0.2,0.2-0.4,0.3-0.6,0.5c-0.5,0.3-0.8,0.9-0.9,1.5
					c-0.2,0.8-0.3,1.2-0.4,1.6"/>
			</g>
		</g>
		<g>
			<g>
				<defs>
					<rect id="SVGID_5_" width="32" height="32"/>
				</defs>
				<clipPath id="SVGID_6_">
					<use xlink:href="#SVGID_5_"  style="overflow:visible;"/>
				</clipPath>
				<line class="st2" x1="12.4" y1="17.3" x2="12.4" y2="20.7"/>
			</g>
		</g>
		<g>
			<g>
				<defs>
					<rect id="SVGID_7_" width="32" height="32"/>
				</defs>
				<clipPath id="SVGID_8_">
					<use xlink:href="#SVGID_7_"  style="overflow:visible;"/>
				</clipPath>
				<line class="st3" x1="14.5" y1="17.3" x2="14.4" y2="20.7"/>
			</g>
		</g>
		<g>
			<g>
				<defs>
					<rect id="SVGID_9_" width="32" height="32"/>
				</defs>
				<clipPath id="SVGID_10_">
					<use xlink:href="#SVGID_9_"  style="overflow:visible;"/>
				</clipPath>
				<line class="st4" x1="16.4" y1="20.7" x2="16.4" y2="17.3"/>
			</g>
		</g>
	</g>
</g>
</svg>
