<?xml version="1.0" encoding="utf-8"?>
<!-- Generator: Adobe Illustrator 25.0.1, SVG Export Plug-In . SVG Version: 6.00 Build 0)  -->
<svg version="1.1" xmlns="http://www.w3.org/2000/svg" xmlns:xlink="http://www.w3.org/1999/xlink" x="0px" y="0px"
	 viewBox="0 0 32 32" style="enable-background:new 0 0 32 32;" xml:space="preserve">
<style type="text/css">
	.st0{clip-path:url(#SVGID_2_);fill:#FFFFFF;}
	.st1{clip-path:url(#SVGID_4_);fill:none;stroke:#000000;stroke-width:0.75;stroke-linecap:round;stroke-linejoin:round;}
	.st2{clip-path:url(#SVGID_6_);fill:none;stroke:#000000;stroke-width:0.75;stroke-linecap:round;}
	.st3{clip-path:url(#SVGID_8_);fill:none;stroke:#000000;stroke-width:0.75;stroke-linecap:round;}
	.st4{clip-path:url(#SVGID_10_);fill:none;stroke:#000000;stroke-width:0.75;stroke-linecap:round;}
</style>
<g id="Layer_2">
</g>
<g id="Layer_1">
	<g>
		<g>
			<defs>
				<rect id="SVGID_1_" width="32" height="32"/>
			</defs>
			<clipPath id="SVGID_2_">
				<use xlink:href="#SVGID_1_"  style="overflow:visible;"/>
			</clipPath>
			<path class="st0" d="M12.6,16.6c-0.1-0.4-0.2-0.8-0.4-1.6c-0.1-0.6-0.4-1.2-0.9-1.5c-0.2-0.2-0.4-0.3-0.6-0.5
				c-0.5-0.3-0.8-0.7-0.8-1.3c0-0.2,0.2-0.5,0.3-0.6c0.3-0.3,0.8-0.4,1.3-0.4c0.5,0,1.1,0.4,1.5,0.7c0.4,0.3,0.7,0.7,1,1.2
				c0.1,0.2,0.2,0.4,0.3,0.7c0.1,0.3,0.1,0.6,0.2,0.9c0,0,0.1,0.5,0.1,0.5s0-1.1,0-1.2c0-1-0.1-1.8,0-2.9c0-0.1,0.1-0.6,0.1-0.7
				c0.1-0.5,0.3-0.8,0.7-1s0.9-0.2,1.4,0c0.4,0.2,0.6,0.5,0.7,1c0,0.1,0.1,1,0.1,1.1c0,1,0,1.6,0,2.2c0,0.2,0,1.6,0,1.5
				c0.1-0.7,0.1-3.2,0.3-3.9c0.1-0.4,0.4-0.7,0.8-0.9s1.1-0.1,1.4,0.2s0.4,0.7,0.5,1.2c0,0.4,0,0.9,0,1.2c0,0.9,0,1.3,0,2.1
				c0,0,0,0.3,0,0.2c0.1-0.3,0.2-0.5,0.3-0.7c0-0.1,0.2-0.6,0.4-0.9c0.1-0.2,0.2-0.4,0.4-0.7c0.2-0.3,0.4-0.4,0.7-0.6
				c0.5-0.2,1.1,0.1,1.3,0.6c0.1,0.2,0,0.7,0,1.1c-0.1,0.6-0.3,1.3-0.4,1.6c-0.1,0.4-0.3,1.2-0.3,1.6c-0.1,0.4-0.2,1.4-0.4,1.8
				c-0.1,0.3-0.4,1-0.7,1.4c0,0-1.1,1.2-1.2,1.8c-0.1,0.6-0.1,0.6-0.1,1s0.1,0.9,0.1,0.9s-0.8,0.1-1.2,0c-0.4-0.1-0.9-0.8-1-1.1
				c-0.2-0.3-0.5-0.3-0.7,0c-0.2,0.4-0.7,1.1-1.1,1.1c-0.6,0.1-1.2,0-1.8,0c-0.3,0-0.7,0-1,0c-0.1,0-0.2,0-0.3-0.1
				c0-0.1,0-0.2,0-0.3c0-0.3,0-0.8-0.2-1.1c-0.5-0.5-0.9-0.9-1.4-1.4c-0.3-0.3-0.6-0.6-0.9-0.9c-0.7-0.7-1.5-1.3-2-2.1
				c-0.4-0.6-0.6-1.4-0.7-2.1c0-0.4,0.1-0.9,0.4-1.2c0.2-0.2,0.6-0.3,0.9-0.4c0.4,0,0.7,0.2,0.9,0.4c0.2,0.3,0.4,0.6,0.5,1
				c0.1,0.3,0.2,0.7,0.4,0.9c0.2,0.2,0.5,0.2,0.8,0.2"/>
		</g>
		<g>
			<defs>
				<rect id="SVGID_3_" width="32" height="32"/>
			</defs>
			<clipPath id="SVGID_4_">
				<use xlink:href="#SVGID_3_"  style="overflow:visible;"/>
			</clipPath>
			<path class="st1" d="M12.6,16.6c-0.1-0.4-0.2-0.8-0.4-1.6c-0.1-0.6-0.4-1.2-0.9-1.5c-0.2-0.2-0.4-0.3-0.6-0.5
				c-0.5-0.3-0.8-0.7-0.8-1.3c0-0.2,0.2-0.5,0.3-0.6c0.3-0.3,0.8-0.4,1.3-0.4c0.5,0,1.1,0.4,1.5,0.7c0.4,0.3,0.7,0.7,1,1.2
				c0.1,0.2,0.2,0.4,0.3,0.7c0.1,0.3,0.1,0.6,0.2,0.9c0,0,0.1,0.5,0.1,0.5s0-1.1,0-1.2c0-1-0.1-1.8,0-2.9c0-0.1,0.1-0.6,0.1-0.7
				c0.1-0.5,0.3-0.8,0.7-1s0.9-0.2,1.4,0c0.4,0.2,0.6,0.5,0.7,1c0,0.1,0.1,1,0.1,1.1c0,1,0,1.6,0,2.2c0,0.2,0,1.6,0,1.5
				c0.1-0.7,0.1-3.2,0.3-3.9c0.1-0.4,0.4-0.7,0.8-0.9s1.1-0.1,1.4,0.2s0.4,0.7,0.5,1.2c0,0.4,0,0.9,0,1.2c0,0.9,0,1.3,0,2.1
				c0,0,0,0.3,0,0.2c0.1-0.3,0.2-0.5,0.3-0.7c0-0.1,0.2-0.6,0.4-0.9c0.1-0.2,0.2-0.4,0.4-0.7c0.2-0.3,0.4-0.4,0.7-0.6
				c0.5-0.2,1.1,0.1,1.3,0.6c0.1,0.2,0,0.7,0,1.1c-0.1,0.6-0.3,1.3-0.4,1.6c-0.1,0.4-0.3,1.2-0.3,1.6c-0.1,0.4-0.2,1.4-0.4,1.8
				c-0.1,0.3-0.4,1-0.7,1.4c0,0-1.1,1.2-1.2,1.8c-0.1,0.6-0.1,0.6-0.1,1s0.1,0.9,0.1,0.9s-0.8,0.1-1.2,0c-0.4-0.1-0.9-0.8-1-1.1
				c-0.2-0.3-0.5-0.3-0.7,0c-0.2,0.4-0.7,1.1-1.1,1.1c-0.6,0.1-1.2,0-1.8,0c-0.3,0-0.7,0-1,0c-0.1,0-0.2,0-0.3-0.1
				c0-0.1,0-0.2,0-0.3c0-0.3,0-0.8-0.2-1.1c-0.5-0.5-0.9-0.9-1.4-1.4c-0.3-0.3-0.6-0.6-0.9-0.9c-0.7-0.7-1.5-1.3-2-2.1
				c-0.4-0.6-0.6-1.4-0.7-2.1c0-0.4,0.1-0.9,0.4-1.2c0.2-0.2,0.6-0.3,0.9-0.4c0.4,0,0.7,0.2,0.9,0.4c0.2,0.3,0.4,0.6,0.5,1
				c0.1,0.3,0.2,0.7,0.4,0.9c0.2,0.2,0.5,0.2,0.8,0.2"/>
		</g>
		<g>
			<defs>
				<rect id="SVGID_5_" width="32" height="32"/>
			</defs>
			<clipPath id="SVGID_6_">
				<use xlink:href="#SVGID_5_"  style="overflow:visible;"/>
			</clipPath>
			<line class="st2" x1="19.6" y1="20.7" x2="19.6" y2="17.3"/>
		</g>
		<g>
			<defs>
				<rect id="SVGID_7_" width="32" height="32"/>
			</defs>
			<clipPath id="SVGID_8_">
				<use xlink:href="#SVGID_7_"  style="overflow:visible;"/>
			</clipPath>
			<line class="st3" x1="17.6" y1="20.7" x2="17.5" y2="17.3"/>
		</g>
		<g>
			<defs>
				<rect id="SVGID_9_" width="32" height="32"/>
			</defs>
			<clipPath id="SVGID_10_">
				<use xlink:href="#SVGID_9_"  style="overflow:visible;"/>
			</clipPath>
			<line class="st4" x1="15.6" y1="17.3" x2="15.6" y2="20.7"/>
		</g>
	</g>
</g>
</svg>
